<svg width="259" height="329" viewBox="0 0 259 329" fill="none" xmlns="http://www.w3.org/2000/svg">
<rect y="42" width="250" height="250" rx="40" fill="black"/>
<path d="M122.6 236L79.4 261C74.7333 263.667 70.6667 264 67.2 262C63.7333 260 62 256.333 62 251V123L79.4 113V241L122.6 216V88L140 78V206C140 209.467 139.133 213.2 137.4 217.2C135.8 221.2 133.667 224.933 131 228.4C128.467 231.733 125.667 234.267 122.6 236ZM140 78L122.6 88L105.2 78L122.6 68L140 78ZM122.6 88V216L105.2 206V78L122.6 88ZM122.6 216L79.4 241L62 231L105.2 206L122.6 216ZM79.4 113L62 123L44.6 113L62 103L79.4 113ZM62 123V251C62 256.333 63.7333 260 67.2 262L49.8 252C46.3333 250 44.6 246.333 44.6 241V113L62 123Z" fill="white"/>
<path d="M192.3 173.5L170.7 161C168.367 159.667 166.333 159.5 164.6 160.5C162.867 161.5 162 163.333 162 166V230L170.7 235V171L192.3 183.5V247.5L201 252.5V188.5C201 186.767 200.567 184.9 199.7 182.9C198.9 180.9 197.833 179.033 196.5 177.3C195.233 175.633 193.833 174.367 192.3 173.5ZM201 252.5L192.3 247.5L183.6 252.5L192.3 257.5L201 252.5ZM192.3 247.5V183.5L183.6 188.5V252.5L192.3 247.5ZM192.3 183.5L170.7 171L162 176L183.6 188.5L192.3 183.5ZM170.7 235L162 230L153.3 235L162 240L170.7 235ZM162 230V166C162 163.333 162.867 161.5 164.6 160.5L155.9 165.5C154.167 166.5 153.3 168.333 153.3 171V235L162 230Z" fill="white"/>
</svg>
