<svg width="246" height="245" viewBox="0 0 246 245" fill="none" xmlns="http://www.w3.org/2000/svg">
<ellipse cx="123" cy="122.5" rx="123" ry="122.5" fill="black"/>
<circle cx="122.5" cy="122.5" r="111.5" fill="white"/>
<path d="M116.7 175.98C107.46 175.98 100.46 173.74 95.7 169.26C91.0333 164.687 88.7 157.967 88.7 149.1C88.7 144.713 89.3533 139.813 90.66 134.4L104.94 77.56C96.9133 79.7067 90.66 83.5333 86.18 89.04C81.7 94.4533 79.46 100.427 79.46 106.96C79.46 111.533 80.6733 115.967 83.1 120.26C77.78 120.26 73.6267 118.953 70.64 116.34C67.7467 113.727 66.3 110.04 66.3 105.28C66.3 99.2133 68.7267 93.4267 73.58 87.92C78.5267 82.32 85.06 77.84 93.18 74.48C101.3 71.12 109.887 69.44 118.94 69.44C122.113 69.44 124.727 69.6733 126.78 70.14L109.7 134.82C108.113 140.7 107.32 145.74 107.32 149.94C107.32 158.807 110.96 163.24 118.24 163.24C128.693 163.24 135.927 153.627 139.94 134.4L153.94 69.72H173.68L160.1 134.4C157.113 148.12 151.933 158.48 144.56 165.48C137.28 172.48 127.993 175.98 116.7 175.98Z" fill="black"/>
<path d="M145.904 105.868L161.991 120.3L141.372 126.999L145.904 105.868Z" fill="#CDCACA"/>
<path d="M99.0473 98.3966L114.554 113.45L93.6875 119.333L99.0473 98.3966Z" fill="#CDCACA"/>
<path d="M107.047 70.3966L122.554 85.45L101.688 91.3331L107.047 70.3966Z" fill="#CDCACA"/>
<path d="M153.904 70.8679L169.991 85.2996L149.372 91.9991L153.904 70.8679Z" fill="#CDCACA"/>
<path d="M168.19 92.167L164.401 113.46L147.409 98.161L168.19 92.167Z" fill="#CDCACA"/>
</svg>
